<?xml version="1.0" encoding="UTF-8"?> <svg xmlns="http://www.w3.org/2000/svg" width="129" height="72" viewBox="0 0 129 72" fill="none"><g id="logo"><path id="Vector" d="M91.8699 33.3649C87.0422 39.3028 82.3708 44.8513 73.2612 44.8592H73.24C72.8054 44.8592 72.3735 44.838 71.9469 44.7956C71.6581 44.7691 71.3719 44.7347 71.0858 44.6844C62.6836 43.3171 56.1866 34.1465 56.1866 23.0337C56.1866 11.921 62.2835 3.32536 70.3041 1.53417C70.418 1.50502 70.532 1.48382 70.6459 1.46263C70.7916 1.43348 70.9374 1.40699 71.0858 1.38314C71.3719 1.33279 71.6581 1.29835 71.9469 1.27185C72.3735 1.22946 72.8054 1.20826 73.24 1.20826H73.2612C82.3708 1.21621 87.0422 6.76465 91.8699 12.7026C92.0342 12.904 92.1296 13.0921 92.3893 13.0921H92.7072C91.8063 9.12288 90.4497 5.66504 88.8758 2.53575C84.321 1.05193 78.9368 0.0344465 73.5182 0.00265026C73.4254 5.66094e-07 73.3327 0 73.24 0C70.116 0 67.1298 0.537887 64.3767 1.51297C64.3979 1.52092 64.3979 1.52092 64.3767 1.51297C61.6237 0.537887 58.6349 0 55.5109 0C41.7935 0 32.3791 11.0386 32.3791 23.0337C32.3791 35.0289 41.7511 46.0145 55.4182 46.0648C66.258 58.0202 80.9002 56.5258 85.773 48.1846C78.6321 51.8677 67.2888 51.245 57.5829 45.9827C59.9571 45.7999 62.2384 45.3123 64.3767 44.5545C67.1298 45.5323 70.116 46.0675 73.24 46.0675C73.3327 46.0675 73.4254 46.0675 73.5182 46.0648C78.9315 46.0357 84.154 45.0712 88.7088 43.59C90.5477 40.4581 91.7295 36.9446 92.633 32.9754H92.3893C92.1296 32.9754 92.0342 33.1635 91.8699 33.3649ZM55.5109 44.8592C46.0806 44.8592 38.4363 35.0872 38.4363 23.0337C38.4363 10.9803 46.0806 1.20826 55.5109 1.20826C57.673 1.20826 59.7424 1.7223 61.6476 2.66029C61.7615 2.71593 61.8728 2.77952 61.9867 2.83782C54.6497 6.87594 50.132 14.7243 50.132 23.0311C50.132 31.3379 54.6524 39.1863 61.9867 43.227C61.8728 43.2853 61.7615 43.3489 61.6476 43.4046C59.7424 44.3425 57.6757 44.8566 55.5135 44.8566L55.5109 44.8592Z" fill="#1E1E1E"></path><path id="Vector_2" d="M70.1001 22.9622C70.1001 22.994 70.1213 23.0178 70.1584 23.0231C72.2782 23.2934 75.9003 23.72 76.6661 23.72C77.4318 23.72 78.2002 23.4179 78.8865 23.0231C78.9157 23.0072 78.9289 22.9834 78.9289 22.9622C78.9289 22.9383 78.9157 22.9171 78.8865 22.9012C78.2002 22.5091 77.4 22.2044 76.6661 22.2044C75.9321 22.2044 72.2782 22.6336 70.1584 22.9012C70.1213 22.9065 70.1001 22.9304 70.1001 22.9622ZM70.0339 20.7046C70.0339 20.7364 70.0577 20.7576 70.0948 20.7603C72.2013 20.906 75.842 21.1233 76.5972 21.0782C77.3205 21.0358 78.0519 20.6887 78.7063 20.2595C78.7328 20.2409 78.7461 20.2197 78.7434 20.1959C78.7434 20.1721 78.7275 20.1509 78.6984 20.1376C77.9989 19.7852 77.143 19.5335 76.4197 19.5759C75.6963 19.6183 72.1642 20.2542 70.0869 20.6437C70.0498 20.6516 70.0313 20.6755 70.0339 20.7073V20.7046ZM69.7106 18.4551C69.7133 18.4869 69.7371 18.508 69.7742 18.508C71.841 18.5372 75.487 18.5504 76.2209 18.463C76.9549 18.3756 77.5458 17.9914 78.1579 17.525C78.1843 17.5065 78.1949 17.4826 78.1923 17.4588C78.1896 17.4349 78.1737 17.4164 78.1446 17.4031C77.4398 17.0905 76.568 16.9209 75.8632 17.003C75.1293 17.0905 71.7642 17.8827 69.761 18.3888C69.7265 18.3968 69.708 18.4233 69.7106 18.4551ZM69.2045 16.2691C69.2098 16.3009 69.2337 16.3194 69.2681 16.3194C71.2554 16.2399 74.8245 16.0385 75.5241 15.9167C76.1944 15.7974 76.6926 15.4053 77.2517 14.9071C77.2755 14.8859 77.2835 14.8621 77.2782 14.8382C77.2729 14.8144 77.257 14.7958 77.2278 14.7852C76.5336 14.5097 75.6512 14.3798 74.9809 14.4991C74.2814 14.6236 71.1388 15.5934 69.2469 16.2028C69.2125 16.2134 69.1993 16.2399 69.2045 16.2717V16.2691ZM68.4944 14.1361C68.5024 14.1679 68.5262 14.1864 68.558 14.1838C70.4287 14.0142 73.8601 13.6247 74.5119 13.471C75.1637 13.3173 75.7334 12.9172 76.001 12.4138C76.0142 12.3873 76.0275 12.3687 76.0222 12.3449C76.0169 12.321 76.001 12.3025 75.9719 12.2919C75.2962 12.0481 74.4165 11.9819 73.7912 12.1302C73.1393 12.2866 70.275 13.3756 68.5289 14.0672C68.4971 14.0804 68.4865 14.1069 68.4918 14.1387L68.4944 14.1361ZM67.5829 12.0905C67.5909 12.1196 67.6147 12.1382 67.6465 12.1355C69.3715 11.8971 72.5935 11.3353 73.1897 11.1684C73.762 11.0068 74.231 10.6014 74.4271 10.0979C74.4377 10.0714 74.4483 10.0502 74.443 10.029C74.435 10.0078 74.4191 9.9893 74.3926 9.9787C73.7461 9.76142 72.8691 9.74552 72.2967 9.92835C71.7059 10.1165 69.1807 11.2664 67.6121 12.0216C67.5856 12.0349 67.575 12.0614 67.5829 12.0932V12.0905ZM66.4515 10.1562C66.4621 10.1854 66.486 10.2039 66.5125 10.1986C68.0784 9.91246 71.0355 9.23149 71.5707 9.04601C72.098 8.86318 72.5511 8.40213 72.575 7.98083C72.575 7.95434 72.5909 7.93314 72.5829 7.91194C72.575 7.89074 72.5591 7.8722 72.5326 7.86425C71.9205 7.66817 71.0196 7.73176 70.5135 7.92784C69.9862 8.13187 67.8506 9.29243 66.4701 10.0847C66.4462 10.0979 66.4383 10.1271 66.4489 10.1562H66.4515ZM65.1028 8.36769C65.1161 8.39683 65.1373 8.41273 65.1611 8.40743C66.5575 8.09477 69.2019 7.34226 69.6709 7.14883C70.0392 6.9978 70.4208 6.46256 70.4684 6.1075C70.4711 6.08365 70.479 6.05981 70.4684 6.03861C70.4605 6.01741 70.442 6.00152 70.4181 5.99357C69.8458 5.81339 69.0694 5.89818 68.46 6.1711C67.9963 6.37777 66.2899 7.49064 65.1081 8.29615C65.0869 8.3094 65.0843 8.33854 65.0975 8.36769H65.1028ZM63.4786 6.73018C63.4918 6.75933 63.5157 6.77522 63.5369 6.76728C64.7663 6.44931 67.1166 5.7021 67.5193 5.50603C67.8532 5.34439 68.0943 4.87805 68.0943 4.46734C68.0943 4.4435 68.0996 4.4223 68.089 4.4011C68.0784 4.3799 68.0625 4.36401 68.0387 4.35606C67.5035 4.18648 66.7377 4.4011 66.1839 4.69257C65.7891 4.90189 64.4696 5.85843 63.4839 6.65864C63.4653 6.67189 63.4653 6.69839 63.4812 6.72753L63.4786 6.73018ZM70.0313 25.2197C70.0313 25.2515 70.0498 25.2754 70.0842 25.2833C72.1616 25.6755 75.6618 26.3087 76.417 26.3511C77.1722 26.3935 77.9989 26.1418 78.6957 25.7894C78.7249 25.7735 78.7381 25.7523 78.7408 25.7311C78.7408 25.7073 78.7302 25.6861 78.7037 25.6675C78.0492 25.2356 77.3179 24.8885 76.5945 24.8488C75.8712 24.809 72.1987 25.021 70.0922 25.1667C70.0551 25.1667 70.0339 25.1932 70.0313 25.2224V25.2197ZM69.708 27.4693C69.7053 27.5011 69.7212 27.5276 69.7583 27.5355C71.7641 28.0416 75.1266 28.8365 75.8606 28.9213C76.5654 29.0035 77.4371 28.8339 78.142 28.5212C78.1711 28.508 78.187 28.4868 78.1896 28.4656C78.1923 28.4417 78.1817 28.4179 78.1552 28.3993C77.5431 27.933 76.9204 27.5435 76.2183 27.4613C75.5161 27.3792 71.841 27.3898 69.7716 27.4163C69.7345 27.4163 69.7133 27.4375 69.708 27.4693ZM69.2019 29.6553C69.1966 29.6871 69.2125 29.7136 69.2443 29.7242C71.1362 30.3336 74.2787 31.3034 74.9782 31.4279C75.6486 31.5472 76.5309 31.4173 77.2252 31.1418C77.2543 31.1312 77.2702 31.11 77.2755 31.0888C77.2808 31.0649 77.2702 31.0411 77.249 31.0199C76.6899 30.5217 76.1918 30.1296 75.5214 30.0103C74.8219 29.8858 71.2528 29.6844 69.2655 29.6076C69.231 29.6076 69.2072 29.6261 69.2019 29.6579V29.6553ZM68.4918 31.7883C68.4838 31.8201 68.4971 31.8466 68.5289 31.8598C70.275 32.5514 73.1367 33.6404 73.7912 33.7968C74.4456 33.9531 75.2962 33.8762 75.9719 33.6351C76.001 33.6245 76.0169 33.606 76.0222 33.5848C76.0275 33.5609 76.0142 33.5424 76.001 33.5159C75.7334 33.0124 75.1372 32.607 74.5119 32.4587C73.8601 32.3023 70.4287 31.9128 68.558 31.7459C68.5262 31.7432 68.5024 31.7618 68.4944 31.7936L68.4918 31.7883ZM67.5803 33.8338C67.5723 33.863 67.5803 33.8921 67.6094 33.9054C69.1781 34.6579 71.7032 35.8105 72.2941 35.9986C72.885 36.1868 73.7435 36.1629 74.39 35.9483C74.4165 35.9404 74.435 35.9218 74.4403 35.898C74.4483 35.8768 74.435 35.8556 74.4244 35.8291C74.2284 35.3256 73.7594 34.9202 73.187 34.7586C72.6147 34.597 69.3688 34.0273 67.6439 33.7915C67.6147 33.7862 67.5909 33.8047 67.5803 33.8365V33.8338ZM66.4489 35.7681C66.4383 35.7973 66.4436 35.8264 66.4701 35.8397C67.8506 36.6319 69.9862 37.7925 70.5135 37.9965C71.0169 38.1899 71.9205 38.2535 72.5326 38.0601C72.5591 38.0522 72.575 38.0336 72.5829 38.0124C72.5909 37.9912 72.5776 37.97 72.575 37.9435C72.5511 37.5222 72.098 37.0612 71.5707 36.8783C71.0355 36.6929 68.0784 36.0119 66.5125 35.7257C66.486 35.7204 66.4621 35.739 66.4515 35.7681H66.4489ZM65.1002 37.5567C65.0869 37.5858 65.0922 37.6123 65.1108 37.6282C66.2925 38.4337 67.9989 39.5466 68.4626 39.7533C69.0721 40.0262 69.8458 40.111 70.4208 39.9308C70.4446 39.9228 70.4605 39.9069 70.4711 39.8857C70.4791 39.8645 70.4711 39.8433 70.4711 39.8168C70.4208 39.4591 70.0418 38.9265 69.6735 38.7755C69.2045 38.5821 66.5602 37.8296 65.1638 37.5169C65.1399 37.5116 65.1161 37.5275 65.1055 37.5567H65.1002ZM63.4759 39.1942C63.4627 39.2233 63.4627 39.2498 63.4786 39.2631C64.4643 40.0633 65.7811 41.0198 66.1786 41.2291C66.735 41.5206 67.5008 41.7352 68.0334 41.5656C68.0546 41.5577 68.0731 41.5418 68.0837 41.5206C68.0943 41.4994 68.089 41.4782 68.089 41.4544C68.089 41.041 67.8506 40.5773 67.514 40.4157C67.1113 40.2196 64.7584 39.4724 63.5316 39.1544C63.5104 39.1491 63.4892 39.165 63.4733 39.1915L63.4759 39.1942Z" fill="#EF9600"></path><path id="Vector_3" d="M42.7183 71.8509V63.1387H48.9849V64.0184H43.6961V67.002H48.4258V67.8817H43.6961V71.8509H42.7183Z" fill="#1E1E1E"></path><path id="Vector_4" d="M35.5165 71.905C34.8567 71.905 34.2553 71.7857 33.7147 71.5446C33.1742 71.3061 32.7105 70.9802 32.321 70.5722C31.9315 70.1641 31.6347 69.6898 31.4227 69.1493C31.2134 68.6087 31.1074 68.0417 31.1074 67.4455V67.4217C31.1074 66.8282 31.2134 66.2585 31.4307 65.7126C31.6453 65.1695 31.9474 64.6925 32.3342 64.2818C32.7211 63.8738 33.1901 63.5478 33.7333 63.3041C34.2791 63.0603 34.8806 62.9384 35.5404 62.9384C36.2001 62.9384 36.8016 63.0577 37.3421 63.2988C37.8827 63.5372 38.3464 63.8632 38.7359 64.2712C39.1227 64.6793 39.4221 65.1536 39.6341 65.6941C39.8434 66.2346 39.9494 66.8017 39.9494 67.3978C39.9574 67.4058 39.9574 67.4137 39.9494 67.4217C39.9494 68.0152 39.8408 68.5876 39.6262 69.1307C39.4115 69.6766 39.1095 70.1535 38.7226 70.5616C38.3331 70.9696 37.8668 71.2955 37.3236 71.5393C36.7778 71.7831 36.1763 71.905 35.5165 71.905ZM35.5404 71.0014C36.0358 71.0014 36.4916 70.9087 36.9076 70.7232C37.3236 70.5377 37.6813 70.2834 37.9781 69.9627C38.2748 69.6421 38.508 69.2659 38.6776 68.8366C38.8472 68.4074 38.932 67.9437 38.932 67.4508V67.427C38.932 66.9315 38.8472 66.4678 38.6776 66.0333C38.508 65.6014 38.2722 65.2224 37.9648 64.9018C37.6601 64.5786 37.2971 64.3242 36.8811 64.1334C36.4651 63.9427 36.0067 63.8499 35.5112 63.8499C35.0157 63.8499 34.56 63.9427 34.144 64.1281C33.728 64.3136 33.3703 64.568 33.0735 64.8886C32.7767 65.2119 32.5436 65.5855 32.374 66.0147C32.2044 66.444 32.1196 66.9077 32.1196 67.4031V67.427C32.1196 67.9225 32.2044 68.3862 32.374 68.8207C32.5436 69.2553 32.7794 69.6315 33.0867 69.9548C33.3941 70.2781 33.7545 70.5324 34.1705 70.7232C34.5865 70.914 35.0449 71.0067 35.5404 71.0067V71.0014Z" fill="#1E1E1E"></path><path id="Vector_5" d="M3.53998 71.9846C2.84577 71.9846 2.21249 71.8707 1.64016 71.6428C1.06518 71.4176 0.519339 71.0678 0 70.5962L0.606781 69.8781C1.05988 70.2915 1.51827 70.5989 1.98197 70.8002C2.44302 71.0016 2.9756 71.1023 3.57973 71.1023C4.18386 71.1023 4.63431 70.9645 4.98672 70.6889C5.33648 70.4134 5.51401 70.0583 5.51401 69.6291V69.6052C5.51401 69.4065 5.48221 69.229 5.41597 69.0673C5.34972 68.9057 5.23314 68.76 5.06886 68.6275C4.90193 68.495 4.67405 68.3758 4.37994 68.2671C4.08582 68.1611 3.71222 68.0578 3.25647 67.9571C2.76098 67.8511 2.32643 67.7266 1.95812 67.5862C1.58981 67.4457 1.2851 67.2761 1.04663 67.0774C0.808158 66.8787 0.627977 66.6482 0.51404 66.3832C0.397454 66.1182 0.33916 65.8082 0.33916 65.4532V65.4293C0.33916 65.0902 0.408054 64.7775 0.548488 64.4887C0.688921 64.1999 0.887649 63.9508 1.14202 63.7388C1.39904 63.5268 1.69845 63.3626 2.04556 63.2433C2.39267 63.1241 2.77158 63.0631 3.18493 63.0631C3.82085 63.0631 4.37464 63.1506 4.85158 63.3308C5.32588 63.5083 5.78692 63.7733 6.23207 64.1283L5.66239 64.8835C5.25699 64.5523 4.85158 64.3138 4.44353 64.1654C4.03548 64.017 3.60888 63.9428 3.16108 63.9428C2.5914 63.9428 2.14095 64.0753 1.80974 64.3456C1.48118 64.6132 1.31425 64.9471 1.31425 65.3419V65.3657C1.31425 65.5724 1.34604 65.7552 1.41228 65.9169C1.47853 66.0785 1.59776 66.2269 1.76999 66.362C1.94222 66.4971 2.18334 66.6217 2.48806 66.733C2.79277 66.8442 3.18493 66.9502 3.66452 67.0483C4.63166 67.2629 5.34177 67.5597 5.80017 67.9412C6.25857 68.3201 6.48644 68.8395 6.48644 69.5019V69.5257C6.48644 69.8967 6.41225 70.2332 6.26652 70.5353C6.12078 70.8373 5.91676 71.0943 5.65974 71.309C5.40272 71.5236 5.09006 71.6879 4.72705 71.8045C4.36404 71.9211 3.96659 71.9793 3.53734 71.9793L3.53998 71.9846Z" fill="#1E1E1E"></path><path id="Vector_6" d="M9.41968 63.1387H12.6629C13.1504 63.1387 13.5929 63.2023 13.993 63.3322C14.3931 63.4593 14.735 63.6422 15.0211 63.878C15.3073 64.1138 15.5246 64.4 15.6782 64.7391C15.8319 65.0783 15.9088 65.4625 15.9088 65.8918V65.9156C15.9088 66.3873 15.8187 66.798 15.6358 67.1477C15.4557 67.4975 15.2093 67.7942 14.8992 68.0327C14.5892 68.2712 14.2289 68.4514 13.8155 68.5706C13.4022 68.6898 12.965 68.7508 12.5039 68.7508H10.3974V71.8509H9.41968V63.1387ZM12.5463 67.8684C12.9014 67.8684 13.2273 67.8234 13.5214 67.7306C13.8155 67.6379 14.0672 67.5081 14.2792 67.3385C14.4912 67.1689 14.6528 66.9675 14.7641 66.7344C14.8754 66.5038 14.931 66.2415 14.931 65.9527V65.9289C14.931 65.3088 14.7191 64.8372 14.2925 64.5192C13.8659 64.2013 13.3015 64.0423 12.5967 64.0423H10.4001V67.8684H12.549H12.5463Z" fill="#1E1E1E"></path><path id="Vector_7" d="M20.6835 63.1387H21.6003L25.551 71.8509H24.4991L23.4842 69.5642H18.7651L17.737 71.8509H16.7328L20.6835 63.1387ZM23.0974 68.6872L21.1287 64.2755L19.1467 68.6872H23.0974Z" fill="#1E1E1E"></path><path id="Vector_8" d="M54.6868 63.1633H55.752L58.2295 70.3467L60.6062 63.1368H61.4118L63.7885 70.3467L66.266 63.1633H67.2941L64.1966 71.8517H63.3672L60.9905 64.8538L58.6004 71.8517H57.7843L54.6895 63.1633H54.6868Z" fill="#1E1E1E"></path><path id="Vector_9" d="M73.2295 72.0001C72.5697 72.0001 71.9682 71.8809 71.4277 71.6398C70.8871 71.4013 70.4234 71.0754 70.0339 70.6673C69.6444 70.2593 69.3477 69.785 69.1357 69.2444C68.9264 68.7039 68.8204 68.1369 68.8204 67.5407V67.5168C68.8204 66.9233 68.9264 66.3536 69.1436 65.8078C69.3583 65.2646 69.6603 64.7877 70.0472 64.377C70.434 63.9689 70.903 63.643 71.4462 63.3992C71.9921 63.1555 72.5935 63.0336 73.2533 63.0336C73.9131 63.0336 74.5146 63.1528 75.0551 63.3939C75.5956 63.6324 76.0593 63.9583 76.4488 64.3664C76.8357 64.7744 77.1351 65.2487 77.3471 65.7892C77.5564 66.3298 77.6624 66.8968 77.6624 67.493C77.6703 67.5009 77.6703 67.5089 77.6624 67.5168C77.6624 68.1104 77.5538 68.6827 77.3391 69.2259C77.1245 69.7717 76.8224 70.2487 76.4356 70.6567C76.0461 71.0648 75.5797 71.3907 75.0365 71.6345C74.4907 71.8782 73.8892 72.0001 73.2295 72.0001ZM73.2533 71.0966C73.7488 71.0966 74.2045 71.0038 74.6205 70.8184C75.0365 70.6329 75.3943 70.3785 75.691 70.0579C75.9878 69.7373 76.221 69.361 76.3905 68.9318C76.5601 68.5025 76.6449 68.0388 76.6449 67.546V67.5221C76.6449 67.0267 76.5601 66.563 76.3905 66.1284C76.221 65.6965 75.9851 65.3176 75.6778 64.997C75.3731 64.6737 75.01 64.4194 74.594 64.2286C74.178 64.0378 73.7196 63.9451 73.2242 63.9451C72.7287 63.9451 72.2729 64.0378 71.8569 64.2233C71.4409 64.4088 71.0832 64.6631 70.7864 64.9837C70.4897 65.307 70.2565 65.6806 70.0869 66.1099C69.9173 66.5391 69.8326 67.0028 69.8326 67.4983V67.5221C69.8326 68.0176 69.9173 68.4813 70.0869 68.9159C70.2565 69.3504 70.4923 69.7267 70.7997 70.0499C71.1071 70.3732 71.4674 70.6276 71.8834 70.8184C72.2994 71.0091 72.7578 71.1019 73.2533 71.1019V71.0966Z" fill="#1E1E1E"></path><path id="Vector_10" d="M81.1599 63.1387H82.0767L87.5377 70.1207V63.1387H88.4916V71.8509H87.7126L82.1138 64.7074V71.8509H81.1599V63.1387Z" fill="#1E1E1E"></path><path id="Vector_11" d="M92.7868 63.1387H95.7968C96.4725 63.1387 97.0952 63.2474 97.6596 63.4699C98.2239 63.6899 98.7115 63.9946 99.1195 64.3841C99.5276 64.7736 99.8429 65.232 100.068 65.7593C100.291 66.2866 100.402 66.8562 100.402 67.471V67.4948C100.402 68.1095 100.291 68.6819 100.068 69.2118C99.8455 69.7444 99.5302 70.2028 99.1195 70.5923C98.7115 70.9818 98.2239 71.2892 97.6596 71.5144C97.0952 71.7396 96.4725 71.8509 95.7968 71.8509H92.7868V63.1387ZM95.7968 70.9421C96.3427 70.9421 96.8381 70.8546 97.2833 70.6797C97.7284 70.5049 98.1073 70.2664 98.4174 69.959C98.7274 69.6517 98.9659 69.2887 99.1354 68.87C99.305 68.4514 99.3898 68.0009 99.3898 67.5187V67.4948C99.3898 67.0126 99.305 66.5648 99.1354 66.1461C98.9659 65.7275 98.7274 65.3618 98.4174 65.0492C98.1073 64.7391 97.7311 64.4954 97.2833 64.3152C96.8381 64.1377 96.3427 64.0476 95.7968 64.0476H93.7672V70.9421H95.7968Z" fill="#1E1E1E"></path><path id="Vector_12" d="M103.81 63.1387H110.076V64.0237H104.787V67.0232H109.517V67.9055H104.787V70.9659H110.137V71.8509H103.81V63.1387Z" fill="#1E1E1E"></path><path id="Vector_13" d="M113.393 63.1395H117.121C117.659 63.1395 118.134 63.2163 118.552 63.37C118.971 63.5237 119.313 63.7357 119.586 64.0112C119.8 64.2259 119.965 64.4802 120.081 64.7691C120.198 65.0579 120.256 65.3785 120.256 65.7256V65.7494C120.256 66.1151 120.198 66.441 120.081 66.7272C119.965 67.0133 119.803 67.2624 119.591 67.4744C119.382 67.6864 119.13 67.8612 118.841 67.9964C118.552 68.1342 118.24 68.2322 117.9 68.2905L120.563 71.849H119.363L116.849 68.4627H114.371V71.849H113.393V63.1368V63.1395ZM117.042 67.583C117.365 67.583 117.662 67.5406 117.935 67.4585C118.208 67.3763 118.444 67.2571 118.642 67.1034C118.841 66.9497 118.995 66.7643 119.109 66.5443C119.22 66.3244 119.276 66.0754 119.276 65.7918V65.768C119.276 65.2275 119.082 64.8088 118.693 64.5041C118.303 64.202 117.757 64.051 117.053 64.051H114.371V67.5857H117.039L117.042 67.583Z" fill="#1E1E1E"></path><path id="Vector_14" d="M126.043 71.9758C125.349 71.9758 124.716 71.8619 124.143 71.634C123.568 71.4088 123.022 71.059 122.503 70.5874L123.11 69.8693C123.563 70.2827 124.021 70.59 124.485 70.7914C124.946 70.9928 125.479 71.0935 126.083 71.0935C126.687 71.0935 127.137 70.9557 127.49 70.6801C127.84 70.4046 128.017 70.0495 128.017 69.6202V69.5964C128.017 69.3977 127.985 69.2201 127.919 69.0585C127.853 68.8969 127.736 68.7512 127.572 68.6187C127.405 68.4862 127.177 68.367 126.883 68.2583C126.589 68.1523 126.215 68.049 125.76 67.9483C125.264 67.8423 124.829 67.7178 124.461 67.5773C124.093 67.4369 123.788 67.2673 123.55 67.0686C123.311 66.8699 123.131 66.6393 123.017 66.3744C122.901 66.1094 122.842 65.7994 122.842 65.4443V65.4205C122.842 65.0813 122.911 64.7687 123.052 64.4799C123.192 64.191 123.391 63.942 123.645 63.73C123.902 63.518 124.201 63.3537 124.549 63.2345C124.896 63.1153 125.275 63.0543 125.688 63.0543C126.324 63.0543 126.878 63.1418 127.355 63.3219C127.829 63.4995 128.29 63.7644 128.735 64.1195L128.165 64.8747C127.76 64.5434 127.355 64.305 126.947 64.1566C126.539 64.0082 126.112 63.934 125.664 63.934C125.094 63.934 124.644 64.0665 124.313 64.3368C123.984 64.6044 123.817 64.9383 123.817 65.3331V65.3569C123.817 65.5636 123.849 65.7464 123.915 65.908C123.982 66.0697 124.101 66.2181 124.273 66.3532C124.445 66.4883 124.686 66.6129 124.991 66.7241C125.296 66.8354 125.688 66.9414 126.168 67.0395C127.135 67.2541 127.845 67.5508 128.303 67.9324C128.762 68.3113 128.989 68.8306 128.989 69.4931V69.5169C128.989 69.8879 128.915 70.2244 128.77 70.5264C128.624 70.8285 128.42 71.0855 128.163 71.3002C127.906 71.5148 127.593 71.6791 127.23 71.7956C126.867 71.9122 126.47 71.9705 126.04 71.9705L126.043 71.9758Z" fill="#1E1E1E"></path></g></svg> 